<?xml version="1.0" encoding="UTF-8"?><svg id="b" xmlns="http://www.w3.org/2000/svg" width="310" height="310" viewBox="0 0 310 310"><g id="c"><rect width="310" height="310" fill="#fff" stroke-width="0"/><path d="M280,30v250H30V30h250M288,0H22C9.85,0,0,9.85,0,22v266c0,12.15,9.85,22,22,22h266c12.15,0,22-9.85,22-22V22c0-12.15-9.85-22-22-22h0Z" fill="#00ace4" stroke-width="0"/><polygon points="241 61 241 250 180 250 180 272 262 272 262 39 180 39 180 61 241 61" fill="#000" stroke-width="0"/><polygon points="69 61 69 250 130 250 130 272 48 272 48 39 130 39 130 61 69 61" fill="#000" stroke-width="0"/></g></svg>